<svg width="600" height="400.00000000000006" xmlns="http://www.w3.org/2000/svg">
 <!-- Created with ImageBot - http://www.imagebot.com/ -->

 <g id="imagebot_1">
  <title>Layer 1</title>
  <ellipse fill="#000000" stroke="#ff2f4f" stroke-width="4" stroke-dasharray="null" stroke-linejoin="round" stroke-linecap="round" stroke-opacity="0" cx="301.08096" cy="196.58098" id="imagebot_11" rx="183.68892" ry="183.68892"/>
  <line fill="none" stroke="#ffffff" stroke-width="4" stroke-linejoin="round" stroke-linecap="round" fill-opacity="0" x1="210.4615" y1="321.45099" x2="306.4615" y2="40.45099" id="imagebot_3" transform="rotate(358.182 184.805 191.6) matrix(0.757282 0 0 0.740663 -10.9233 57.5764)"/>
  <line fill="none" stroke="#ffffff" stroke-width="4" stroke-linejoin="round" stroke-linecap="round" fill-opacity="0" x1="99.5385" y1="321.88236" x2="195.5385" y2="40.88236" transform="rotate(14.3856 228.445 191.937) matrix(-0.757282 0 0 0.708333 340.173 63.458)" id="imagebot_4"/>
  <line fill="none" stroke="#ffffff" stroke-width="4" stroke-linejoin="round" stroke-linecap="round" fill-opacity="0" x1="100.03366" y1="319.11999" x2="196.03366" y2="38.11999" transform="rotate(31.5572 280.481 159.39) matrix(-0.764104 0 0 0.983147 393.594 -16.2194)" id="imagebot_5"/>
  <line fill="none" stroke="#ffffff" stroke-width="4" stroke-linejoin="round" stroke-linecap="round" fill-opacity="0" x1="210.4615" y1="321.45099" x2="306.4615" y2="40.45099" transform="rotate(358.182 306.805 257.599) matrix(0.757282 0 0 0.740663 111.077 123.576)" id="imagebot_8"/>
  <line fill="none" stroke="#ffffff" stroke-width="4" stroke-linejoin="round" stroke-linecap="round" fill-opacity="0" x1="99.5385" y1="321.88236" x2="195.5385" y2="40.88236" transform="rotate(14.3856 350.445 257.937) matrix(-0.757282 0 0 0.708333 462.173 129.458)" id="imagebot_9"/>
  <line fill="none" stroke="#ffffff" stroke-width="4" stroke-linejoin="round" stroke-linecap="round" fill-opacity="0" x1="100.03366" y1="319.11999" x2="196.03366" y2="38.11999" transform="rotate(31.5572 402.482 225.39) matrix(-0.764104 0 0 0.983147 515.595 49.7806)" id="imagebot_10"/>
 </g>
</svg>